<?xml version="1.0" encoding="UTF-8" standalone="no" ?>
<!DOCTYPE svg PUBLIC "-//W3C//DTD SVG 1.1//EN" "http://www.w3.org/Graphics/SVG/1.1/DTD/svg11.dtd">
<svg xmlns="http://www.w3.org/2000/svg" xmlns:xlink="http://www.w3.org/1999/xlink" version="1.1" width="20" height="20" viewBox="0 0 640 640" xml:space="preserve">
<desc>Created with Fabric.js 4.6.0</desc>
<defs>
</defs>
<g transform="matrix(2.92 0 0 2.92 327.58 424.8)" id="4dCPIW1zJ1d1gCjFdUTFl"  >
<path style="stroke: rgb(0,0,0); stroke-width: 1; stroke-dasharray: none; stroke-linecap: butt; stroke-dashoffset: 0; stroke-linejoin: miter; stroke-miterlimit: 4; fill: none; fill-rule: nonzero; opacity: 1;" vector-effect="non-scaling-stroke"  transform=" translate(0, 0)" d="M 0 -62.01835 C 34.23413 -62.01835 62.01835 -34.23412999999999 62.01835 0 C 62.01835 34.23413 34.23412999999999 62.01835 0 62.01835 C -34.23413 62.01835 -62.01835 34.23412999999999 -62.01835 0 C -62.01835 -34.23413 -34.23412999999999 -62.01835 0 -62.01835 z" stroke-linecap="round" />
</g>
<g transform="matrix(2.26 0 0 2.26 304.19 413.14)" id="y9voetwhS4KkDhyfdZl4r"  >
<path style="stroke: rgb(255,255,255); stroke-width: 0; stroke-dasharray: none; stroke-linecap: butt; stroke-dashoffset: 0; stroke-linejoin: miter; stroke-miterlimit: 4; fill: rgb(0,0,0); fill-rule: nonzero; opacity: 1;" vector-effect="non-scaling-stroke"  transform=" translate(-40, -40)" d="M 29.281 13.34 L 29.281 61.20099999999999 C 26.951 59.78699999999999 24.101999999999997 59.017999999999994 21.116 59.017999999999994 C 13.748999999999999 59.017999999999994 7.756 63.724999999999994 7.756 69.50899999999999 C 7.756 75.295 13.749 80 21.116 80 C 28.137999999999998 80 34.066 75.793 34.715 70.495 L 34.779 70.495 L 34.779 27.256 L 67.049 16.703 L 67.049 46.851 C 64.71900000000001 45.437 61.870000000000005 44.67 58.885000000000005 44.67 C 51.51800000000001 44.67 45.525000000000006 49.375 45.525000000000006 55.161 C 45.525000000000006 60.945 51.51800000000001 65.652 58.885000000000005 65.652 C 66.25200000000001 65.652 72.245 60.945 72.245 55.161 L 72.245 0 L 29.281 13.34 z M 34.779 20.875 L 34.779 18.168 L 67.049 7.614999999999998 L 67.049 10.640999999999998 L 34.779 20.875 z" stroke-linecap="round" />
</g>
<g transform="matrix(2.49 0 0 2.39 327.58 170.33)" id="Y8Minmb_uVwaxaGb8pVJh"  >
<path style="stroke: rgb(0,0,0); stroke-width: 1; stroke-dasharray: none; stroke-linecap: butt; stroke-dashoffset: 0; stroke-linejoin: miter; stroke-miterlimit: 4; fill: rgb(0,0,0); fill-rule: nonzero; opacity: 1;" vector-effect="non-scaling-stroke"  transform=" translate(0, 0)" d="M -11.86258 32.06099 L -23.90341 34.95292 C -23.90341 34.95292 -36.66836 41.169979999999995 -39.1707 42.747009999999996 C -54.18044 52.20648 -62.85898999999999 66.75692 -62.85898999999999 66.75692 C -62.85898999999999 66.75692 -53.78461999999999 36.656969999999994 -42.41288999999999 10.972459999999991 C -31.04115999999999 -14.712050000000009 -5.291719999999991 -66.75689 -5.291719999999991 -66.75689 C -5.291719999999991 -66.75689 22.17201000000001 -22.405989999999996 39.20969000000001 10.972459999999998 C 56.24737000000001 44.35091 62.858990000000006 66.75692000000001 62.858990000000006 66.75692000000001 L 49.62266 50.86853000000001 C 49.62266 50.86853000000001 41.91863 42.44205000000001 28.807960000000005 36.95468000000001 C 15.697290000000004 31.467310000000012 3.552713678800501e-15 30.91848000000001 3.552713678800501e-15 30.91848000000001 z" stroke-linecap="round" />
</g>
</svg>